<?xml version="1.0" encoding="UTF-8" standalone="no"?>
<svg
   xmlns:dc="http://purl.org/dc/elements/1.1/"
   xmlns:cc="http://creativecommons.org/ns#"
   xmlns:rdf="http://www.w3.org/1999/02/22-rdf-syntax-ns#"
   xmlns:svg="http://www.w3.org/2000/svg"
   xmlns="http://www.w3.org/2000/svg"
   id="svg6481"
   version="1.1"
   viewBox="0 0 36.460991 35.743089"
   height="35.743088mm"
   width="36.460991mm">
  <defs
     id="defs6475" />
  <metadata
     id="metadata6478">
    <rdf:RDF>
      <cc:Work
         rdf:about="">
        <dc:format>image/svg+xml</dc:format>
        <dc:type
           rdf:resource="http://purl.org/dc/dcmitype/StillImage" />
        <dc:title></dc:title>
      </cc:Work>
    </rdf:RDF>
  </metadata>
  <g
     transform="translate(-54.489472,-56.775367)"
     id="layer1">
    <g
       id="g6414"
       transform="matrix(0.35277777,0,0,-0.35277777,-11.209893,105.69671)">
      <g
         id="g338"
         transform="translate(286.75377,87.23093)">
        <path
           d="m 0,0 c 0,-25.26 -20.477,-45.736 -45.736,-45.736 -25.261,0 -45.738,20.476 -45.738,45.736 0,25.26 20.477,45.736 45.738,45.736 C -20.477,45.736 0,25.26 0,0"
           style="fill:#242e3c;fill-opacity:1;fill-rule:nonzero;stroke:none"
           id="path340" />
      </g>
      <g
         id="g342"
         transform="translate(204.24107,89.24263)">
        <path
           d="M 0,0 C 3.515,-0.599 5.272,-0.898 8.788,-1.497"
           style="fill:#ffffff;fill-opacity:1;fill-rule:nonzero;stroke:none"
           id="path344" />
      </g>
      <g
         id="g346"
         transform="translate(212.77377,86.24453)">
        <path
           d="M 0,0 -8.788,1.497 -8.277,4.499 0.511,3.002 Z"
           style="fill:#ffffff;fill-opacity:1;fill-rule:nonzero;stroke:none"
           id="path348" />
      </g>
      <g
         id="g350"
         transform="translate(202.83677,118.97113)">
        <path
           d="M 0,0 C 6.735,-6.016 10.103,-9.023 16.836,-15.04"
           style="fill:#ffffff;fill-opacity:1;fill-rule:nonzero;stroke:none"
           id="path352" />
      </g>
      <g
         id="g354"
         transform="translate(218.65957,102.79633)">
        <path
           d="M 0,0 -16.837,15.039 -14.808,17.31 2.029,2.271 Z"
           style="fill:#ffffff;fill-opacity:1;fill-rule:nonzero;stroke:none"
           id="path356" />
      </g>
      <g
         id="g358"
         transform="translate(229.16977,125.91743)">
        <path
           d="M 0,0 C 1.618,-5.557 2.427,-8.335 4.043,-13.893"
           style="fill:#ffffff;fill-opacity:1;fill-rule:nonzero;stroke:none"
           id="path360" />
      </g>
      <g
         id="g362"
         transform="translate(231.75087,111.59903)">
        <path
           d="m 0,0 -4.042,13.894 2.923,0.85 4.042,-13.893 z"
           style="fill:#ffffff;fill-opacity:1;fill-rule:nonzero;stroke:none"
           id="path364" />
      </g>
      <g
         id="g366"
         transform="translate(253.09457,135.58343)">
        <path
           d="M 0,0 C -1.617,-9.424 -2.427,-14.136 -4.044,-23.559"
           style="fill:#ffffff;fill-opacity:1;fill-rule:nonzero;stroke:none"
           id="path368" />
      </g>
      <g
         id="g370"
         transform="translate(250.55067,111.76603)">
        <path
           d="m 0,0 -3,0.517 4.044,23.557 3,-0.513 z"
           style="fill:#ffffff;fill-opacity:1;fill-rule:nonzero;stroke:none"
           id="path372" />
      </g>
      <g
         id="g374"
         transform="translate(271.03407,111.45163)">
        <path
           d="M 0,0 C -3.377,-3.008 -5.066,-4.513 -8.442,-7.521"
           style="fill:#ffffff;fill-opacity:1;fill-rule:nonzero;stroke:none"
           id="path376" />
      </g>
      <g
         id="g378"
         transform="translate(263.60437,102.79433)">
        <path
           d="M 0,0 -2.025,2.273 6.417,9.794 8.441,7.521 Z"
           style="fill:#ffffff;fill-opacity:1;fill-rule:nonzero;stroke:none"
           id="path380" />
      </g>
      <g
         id="g382"
         transform="translate(283.58387,89.24163)">
        <path
           d="M 0,0 C -5.739,-0.598 -8.608,-0.897 -14.35,-1.496"
           style="fill:#ffffff;fill-opacity:1;fill-rule:nonzero;stroke:none"
           id="path384" />
      </g>
      <g
         id="g386"
         transform="translate(269.39247,86.23093)">
        <path
           d="M 0,0 -0.315,3.029 14.034,4.524 14.35,1.496 Z"
           style="fill:#ffffff;fill-opacity:1;fill-rule:nonzero;stroke:none"
           id="path388" />
      </g>
      <g
         id="g390"
         transform="translate(281.54287,56.51993)">
        <path
           d="M 0,0 C -7.582,6.016 -11.373,9.024 -18.953,15.04"
           style="fill:#ffffff;fill-opacity:1;fill-rule:nonzero;stroke:none"
           id="path392" />
      </g>
      <g
         id="g394"
         transform="translate(280.59557,55.32753)">
        <path
           d="m 0,0 -18.953,15.04 1.892,2.385 18.954,-15.04 z"
           style="fill:#ffffff;fill-opacity:1;fill-rule:nonzero;stroke:none"
           id="path396" />
      </g>
      <g
         id="g398"
         transform="translate(253.09357,54.19863)">
        <path
           d="M 0,0 C -1.618,3.706 -2.427,5.56 -4.043,9.269"
           style="fill:#ffffff;fill-opacity:1;fill-rule:nonzero;stroke:none"
           id="path400" />
      </g>
      <g
         id="g402"
         transform="translate(251.69707,53.58923)">
        <path
           d="M 0,0 -4.043,9.27 -1.25,10.485 2.791,1.218 Z"
           style="fill:#ffffff;fill-opacity:1;fill-rule:nonzero;stroke:none"
           id="path404" />
      </g>
      <g
         id="g406"
         transform="translate(229.16827,49.57363)">
        <path
           d="M 0,0 C 1.618,5.557 2.427,8.336 4.044,13.894"
           style="fill:#ffffff;fill-opacity:1;fill-rule:nonzero;stroke:none"
           id="path408" />
      </g>
      <g
         id="g410"
         transform="translate(230.62977,49.14883)">
        <path
           d="m 0,0 -2.923,0.85 4.044,13.893 2.923,-0.85 z"
           style="fill:#ffffff;fill-opacity:1;fill-rule:nonzero;stroke:none"
           id="path412" />
      </g>
      <g
         id="g414"
         transform="translate(204.24107,55.77583)">
        <path
           d="M 0,0 C 6.816,5.684 10.225,8.525 17.045,14.209"
           style="fill:#ffffff;fill-opacity:1;fill-rule:nonzero;stroke:none"
           id="path416" />
      </g>
      <g
         id="g418"
         transform="translate(205.21667,54.60683)">
        <path
           d="m 0,0 -1.951,2.339 17.046,14.208 1.949,-2.339 z"
           style="fill:#ffffff;fill-opacity:1;fill-rule:nonzero;stroke:none"
           id="path420" />
      </g>
      <g
         id="g422"
         transform="translate(261.24887,87.23183)">
        <path
           d="m 0,0 c 0,-11.174 -9.06,-20.234 -20.231,-20.234 -11.177,0 -20.234,9.06 -20.234,20.234 0,11.175 9.057,20.232 20.234,20.232 C -9.06,20.232 0,11.175 0,0"
           style="fill:#e6e4e5;fill-opacity:1;fill-rule:nonzero;stroke:none"
           id="path424" />
      </g>
      <g
         id="g426"
         transform="translate(245.35437,81.36563)">
        <path
           d="M 0,0 C 0,0.527 -0.1,0.988 -0.298,1.384 -0.494,1.779 -0.757,2.128 -1.087,2.428 -1.417,2.727 -1.798,2.987 -2.23,3.207 -2.661,3.427 -3.104,3.625 -3.559,3.8 L -3.58,-3.799 c 0.498,0.088 0.966,0.237 1.406,0.45 0.439,0.213 0.82,0.479 1.142,0.8 0.321,0.324 0.575,0.697 0.759,1.123 C -0.092,-1.002 0,-0.526 0,0 m -8.543,12.255 c 0,-0.557 0.092,-1.038 0.274,-1.448 0.182,-0.41 0.427,-0.77 0.736,-1.078 0.308,-0.305 0.662,-0.573 1.065,-0.802 0.403,-0.226 0.824,-0.434 1.264,-0.624 l -0.024,7.225 c -0.468,-0.059 -0.902,-0.172 -1.307,-0.34 -0.401,-0.169 -0.749,-0.392 -1.042,-0.67 -0.293,-0.28 -0.527,-0.604 -0.703,-0.977 -0.176,-0.374 -0.263,-0.802 -0.263,-1.286 m 7.731,0.286 c 0,0.878 -0.252,1.563 -0.758,2.054 -0.506,0.49 -1.154,0.801 -1.944,0.933 L -3.536,7.774 C -2.643,7.452 -1.787,7.105 -0.967,6.732 -0.147,6.357 0.577,5.919 1.209,5.413 1.836,4.909 2.34,4.313 2.714,3.625 3.085,2.937 3.272,2.115 3.272,1.164 3.272,0.125 3.09,-0.776 2.723,-1.537 2.358,-2.299 1.863,-2.942 1.241,-3.469 0.618,-3.998 -0.11,-4.415 -0.944,-4.721 -1.778,-5.028 -2.658,-5.24 -3.58,-5.358 v -2.526 l -1.581,-0.33 -0.022,2.746 h -0.176 c -0.542,0 -1.189,0.044 -1.943,0.133 -0.754,0.086 -1.475,0.263 -2.165,0.526 -0.688,0.263 -1.273,0.64 -1.756,1.132 -0.483,0.488 -0.724,1.137 -0.724,1.942 0,0.338 0.069,0.631 0.208,0.879 0.138,0.248 0.324,0.455 0.559,0.615 0.235,0.162 0.501,0.282 0.802,0.363 0.3,0.078 0.612,0.12 0.934,0.12 0.307,0 0.615,-0.022 0.923,-0.065 v -0.638 c 0,-1.098 0.282,-1.921 0.846,-2.472 0.562,-0.547 1.393,-0.859 2.492,-0.931 v 8.17 c -0.849,0.323 -1.669,0.672 -2.461,1.054 -0.79,0.38 -1.488,0.834 -2.096,1.361 -0.609,0.527 -1.095,1.143 -1.461,1.844 -0.367,0.704 -0.549,1.538 -0.549,2.506 0,0.965 0.175,1.807 0.527,2.525 0.352,0.717 0.823,1.316 1.417,1.8 0.594,0.483 1.285,0.86 2.076,1.131 0.789,0.271 1.625,0.45 2.502,0.539 v 2.678 l 1.735,0.199 -0.021,-2.812 c 0.527,-0.015 1.142,-0.062 1.846,-0.143 0.701,-0.081 1.367,-0.242 1.996,-0.482 C 0.957,16.264 1.489,15.923 1.921,15.484 2.354,15.045 2.57,14.466 2.57,13.749 2.57,13.413 2.496,13.127 2.351,12.893 2.203,12.658 2.013,12.464 1.778,12.31 1.545,12.156 1.281,12.043 0.988,11.97 0.694,11.896 0.396,11.859 0.088,11.859 c -0.293,0 -0.594,0.024 -0.9,0.067 z"
           style="fill:#f05727;fill-opacity:1;fill-rule:nonzero;stroke:none"
           id="path428" />
      </g>
      <g
         id="g430"
         transform="translate(262.95297,46.13033)">
        <path
           d="m 0,0 c 0,-3.281 -2.66,-5.94 -5.94,-5.94 -3.281,0 -5.94,2.659 -5.94,5.94 0,3.28 2.659,5.939 5.94,5.939 C -2.66,5.939 0,3.28 0,0"
           style="fill:#ffffff;fill-opacity:1;fill-rule:nonzero;stroke:none"
           id="path432" />
      </g>
      <g
         id="g434"
         transform="translate(200.94807,86.60003)">
        <path
           d="m 0,0 c 0,-3.281 -2.659,-5.94 -5.939,-5.94 -3.281,0 -5.94,2.659 -5.94,5.94 0,3.28 2.659,5.939 5.94,5.939 C -2.659,5.939 0,3.28 0,0"
           style="fill:#ffffff;fill-opacity:1;fill-rule:nonzero;stroke:none"
           id="path436" />
      </g>
      <g
         id="g438"
         transform="translate(284.88857,116.85103)">
        <path
           d="m 0,0 c 0,-3.281 -2.659,-5.94 -5.938,-5.94 -3.283,0 -5.941,2.659 -5.941,5.94 0,3.28 2.658,5.939 5.941,5.939 C -2.659,5.939 0,3.28 0,0"
           style="fill:#ffffff;fill-opacity:1;fill-rule:nonzero;stroke:none"
           id="path440" />
      </g>
    </g>
  </g>
</svg>
